<?xml version="1.0" standalone="no"?>
<!DOCTYPE svg PUBLIC "-//W3C//DTD SVG 20010904//EN"
 "http://www.w3.org/TR/2001/REC-SVG-20010904/DTD/svg10.dtd">
<svg version="1.0" xmlns="http://www.w3.org/2000/svg"
 width="500.000000pt" height="500.000000pt" viewBox="0 0 500.000000 500.000000"
 preserveAspectRatio="xMidYMid meet">

<g transform="translate(0.000000,500.000000) scale(0.100000,-0.100000)"
fill="#000000" stroke="none">
<path d="M2310 4401 c-19 -4 -44 -12 -55 -18 -11 -6 -56 -28 -100 -49 -175
-82 -275 -242 -275 -439 0 -90 29 -155 96 -214 106 -93 242 -146 454 -176 222
-31 371 -63 409 -88 48 -32 101 -129 101 -186 0 -88 -53 -143 -171 -177 -79
-23 -90 -23 -213 -14 -296 21 -446 23 -616 6 -415 -42 -681 -109 -772 -194
-90 -84 -122 -256 -66 -354 l26 -47 -31 -20 c-49 -30 -171 -159 -210 -221 -94
-151 -103 -310 -23 -415 l24 -31 -35 -33 c-20 -19 -49 -63 -67 -100 -27 -58
-31 -76 -31 -151 0 -74 3 -91 27 -130 14 -25 51 -69 82 -98 l56 -53 -35 -46
c-84 -111 -112 -220 -81 -325 33 -114 136 -227 258 -283 29 -13 100 -34 158
-47 183 -40 694 -28 1025 23 149 23 390 96 432 131 8 6 21 3 39 -9 24 -16 47
-18 169 -16 179 3 296 17 465 55 279 63 615 196 785 311 227 154 400 461 446
787 18 129 18 464 0 555 -20 104 -67 242 -106 313 -57 103 -179 282 -247 361
-92 109 -330 434 -378 517 -23 40 -75 165 -116 278 -89 248 -111 293 -176 362
-91 96 -150 126 -340 168 -208 47 -801 90 -908 67z m180 -88 c-2 -192 -126
-372 -256 -373 -44 0 -129 46 -167 91 -19 21 -41 39 -50 39 -24 0 -21 10 17
64 59 83 148 142 251 167 28 6 59 15 70 20 11 4 46 8 78 8 48 1 57 -2 57 -16z
m225 2 c72 -8 195 -22 274 -30 184 -21 357 -64 421 -105 60 -39 122 -104 150
-161 13 -24 54 -131 92 -238 74 -206 96 -256 155 -349 52 -81 284 -392 364
-487 84 -100 224 -318 261 -408 71 -168 97 -364 78 -600 -14 -190 -31 -274
-81 -407 -69 -183 -176 -337 -303 -437 -159 -124 -540 -277 -853 -342 -159
-33 -493 -55 -493 -33 0 4 16 24 36 43 94 90 143 284 94 378 -10 21 -34 51
-52 66 -22 18 -28 30 -20 33 58 19 155 129 173 195 27 103 -27 221 -120 260
l-33 14 58 33 c70 39 164 130 193 188 52 103 48 215 -12 294 -33 43 -106 87
-144 88 -35 0 -27 16 17 34 58 23 124 88 151 149 19 43 24 69 24 147 0 88 -3
101 -33 162 -39 80 -89 126 -178 164 l-64 27 27 17 c149 92 169 268 47 427
-54 71 -160 104 -479 148 -280 39 -459 130 -496 254 -9 32 -6 171 5 171 1 0
27 -24 57 -54 103 -99 219 -120 330 -60 120 66 209 232 209 390 0 24 3 44 8
44 4 0 66 -7 137 -15z m-233 -1355 c295 -17 466 -66 528 -151 60 -84 72 -185
34 -279 -56 -133 -230 -176 -784 -197 -386 -14 -837 43 -1000 127 -66 34 -110
97 -110 159 0 15 7 50 15 79 12 40 24 57 58 82 124 89 296 134 687 179 106 12
375 12 572 1z m-1200 -600 c180 -70 508 -112 873 -113 243 0 669 36 707 59 5
3 6 -5 3 -18 -8 -34 7 -49 59 -59 164 -31 183 -220 36 -352 -127 -115 -280
-161 -625 -187 -77 -7 -192 -16 -255 -21 -235 -19 -342 -21 -486 -10 -313 25
-491 68 -606 144 -109 73 -127 175 -55 319 53 108 206 268 256 268 9 0 50 -14
93 -30z m-280 -666 c101 -52 249 -86 480 -109 202 -20 372 -19 662 5 375 31
460 40 543 60 43 10 78 18 78 17 0 -1 5 -11 11 -22 7 -13 25 -22 52 -26 66 -9
102 -54 102 -129 0 -73 -50 -134 -149 -185 -106 -53 -432 -136 -676 -171 -182
-26 -506 -24 -695 5 -199 30 -260 46 -366 96 -136 63 -214 152 -214 243 0 62
30 139 73 188 43 49 53 52 99 28z m1784 -544 c16 -9 38 -33 49 -52 18 -34 18
-41 6 -99 -49 -241 -266 -357 -771 -416 -116 -13 -232 -18 -465 -18 -288 0
-316 2 -398 22 -48 13 -104 31 -125 42 -68 35 -136 97 -172 157 -31 52 -35 66
-35 129 0 59 5 79 29 123 17 29 43 69 60 88 l31 35 55 -24 c183 -81 638 -127
957 -98 207 20 540 88 698 144 36 13 41 13 46 -2 3 -8 19 -23 35 -31z"/>
<path d="M2580 2865 c-10 -12 -9 -42 4 -147 8 -73 13 -152 9 -175 -5 -39 -4
-42 21 -49 37 -9 117 13 177 49 41 25 60 45 82 87 50 95 26 180 -60 216 -37
16 -131 18 -153 5 -10 -7 -18 -4 -28 10 -16 23 -35 24 -52 4z m217 -100 c50
-33 13 -122 -67 -163 -53 -26 -53 -26 -64 83 -7 69 -6 70 21 88 31 19 72 16
110 -8z"/>
<path d="M2685 2209 c-20 -6 -38 -22 -53 -49 -22 -38 -23 -48 -16 -144 4 -73
3 -105 -5 -110 -17 -11 -13 -41 7 -59 59 -54 218 36 271 153 46 100 15 176
-82 205 -56 17 -78 17 -122 4z m115 -84 c40 -21 39 -59 -2 -120 -33 -47 -81
-85 -94 -73 -3 4 -9 48 -12 99 -4 71 -2 93 9 100 21 13 67 11 99 -6z"/>
<path d="M2643 1625 c-18 -8 -33 -18 -33 -23 0 -5 -9 -19 -20 -32 -17 -19 -20
-37 -20 -106 0 -46 -4 -86 -10 -89 -17 -11 -11 -54 10 -65 38 -20 161 22 207
72 30 32 53 90 53 133 0 97 -92 152 -187 110z m95 -77 c29 -29 1 -108 -48
-133 -46 -24 -50 -20 -50 49 0 56 3 67 22 80 27 19 59 21 76 4z"/>
<path d="M2575 1101 l-40 -6 -3 -146 c-1 -81 2 -158 7 -173 13 -33 44 -34 79
-1 15 13 45 40 68 59 53 46 97 127 97 179 0 33 -6 46 -32 69 -27 24 -39 28
-84 27 -28 -1 -70 -5 -92 -8z m119 -74 c18 -13 18 -15 1 -48 -23 -46 -64 -99
-76 -99 -5 0 -9 32 -9 70 0 64 2 72 23 80 31 12 41 12 61 -3z"/>
</g>
</svg>
