<?xml version="1.0" standalone="no"?>
<!DOCTYPE svg PUBLIC "-//W3C//DTD SVG 20010904//EN"
 "http://www.w3.org/TR/2001/REC-SVG-20010904/DTD/svg10.dtd">
<svg version="1.0" xmlns="http://www.w3.org/2000/svg"
 width="500.000000pt" height="500.000000pt" viewBox="0 0 500.000000 500.000000"
 preserveAspectRatio="xMidYMid meet">

<g transform="translate(0.000000,500.000000) scale(0.100000,-0.100000)"
fill="#000000" stroke="none">
<path d="M2041 4685 c-94 -26 -171 -75 -257 -160 -91 -90 -126 -152 -169 -300
-77 -265 -49 -415 128 -680 78 -118 228 -265 334 -328 86 -50 143 -105 143
-137 0 -53 -71 -75 -142 -45 -62 25 -156 29 -294 10 -506 -67 -749 -207 -748
-434 0 -45 7 -81 21 -113 l21 -47 -38 -41 c-73 -79 -110 -196 -90 -285 14 -63
25 -82 72 -131 l40 -42 -50 -46 c-71 -67 -107 -148 -107 -246 1 -93 30 -155
105 -223 l51 -46 -35 -49 c-20 -27 -50 -80 -68 -118 -28 -59 -33 -82 -36 -165
-4 -82 -1 -103 18 -147 27 -64 102 -135 174 -167 127 -56 355 -75 672 -56 172
11 213 17 395 61 297 71 521 152 635 230 148 103 207 235 153 347 -27 56 -104
124 -173 154 -31 13 -56 26 -56 29 0 3 23 20 50 38 120 82 163 209 105 308
-14 24 -34 48 -45 54 -18 10 -16 14 32 53 148 121 126 300 -45 372 l-38 16 31
44 c85 123 79 279 -12 348 -60 46 -113 59 -239 61 -102 1 -119 -1 -138 -18
-23 -21 -28 -70 -9 -82 6 -4 64 -8 127 -9 196 -2 248 -47 209 -179 -17 -56
-82 -119 -150 -144 -162 -61 -538 -87 -883 -62 -308 23 -469 77 -547 184 -60
82 -57 164 7 235 71 78 273 157 500 196 213 36 250 38 330 20 151 -36 185 -33
245 21 104 94 60 217 -119 332 -166 106 -326 292 -415 482 -61 130 -65 228
-16 406 50 179 135 291 277 361 74 37 81 38 182 38 116 0 179 -16 317 -81 178
-84 243 -240 274 -659 17 -224 59 -327 193 -471 128 -137 224 -188 609 -319
254 -87 296 -106 398 -183 41 -31 82 -61 91 -67 29 -17 135 -171 178 -260 49
-99 76 -197 90 -329 38 -335 -33 -640 -216 -934 -124 -198 -196 -266 -393
-370 -167 -89 -362 -146 -675 -197 -87 -14 -188 -33 -225 -42 -43 -10 -111
-16 -200 -15 -127 0 -168 5 -371 48 -57 12 -78 -61 -29 -98 72 -53 468 -82
622 -45 36 9 135 28 220 42 344 58 530 114 714 216 204 113 303 205 429 399
153 236 231 479 242 760 12 320 -56 563 -218 780 -81 109 -153 178 -249 242
-99 66 -123 76 -415 175 -121 41 -263 95 -315 120 -81 39 -107 59 -185 137
-91 92 -142 170 -164 251 -6 22 -15 105 -22 185 -34 446 -118 632 -333 735
-134 64 -220 87 -341 91 -78 3 -126 -1 -164 -11z m-841 -2354 c98 -71 269
-113 535 -132 237 -16 616 -3 765 26 l25 5 1 -84 c1 -63 5 -92 18 -112 16 -24
22 -26 62 -20 138 19 187 194 59 212 -66 9 -73 15 -35 29 19 6 42 8 50 4 8 -4
42 -13 74 -19 130 -27 152 -116 49 -198 -171 -134 -490 -186 -943 -152 -328
24 -654 94 -738 157 -48 36 -72 80 -72 133 1 71 59 180 97 180 7 0 31 -13 53
-29z m195 -491 c354 -72 830 -91 1093 -44 l32 6 0 -53 c0 -87 27 -120 84 -105
89 22 103 156 17 156 -53 0 -42 15 26 36 67 22 68 22 105 3 94 -48 73 -134
-51 -216 -170 -112 -654 -205 -1066 -206 -305 0 -452 25 -540 91 -61 47 -85
92 -85 157 1 68 31 130 93 190 l52 50 75 -23 c41 -13 116 -32 165 -42z m1253
-425 c119 -28 216 -97 228 -162 12 -66 -72 -162 -201 -226 -94 -47 -340 -127
-530 -172 -176 -42 -206 -47 -402 -57 -528 -29 -740 51 -720 270 8 81 54 182
108 238 l40 40 62 -12 c102 -22 353 -37 492 -30 243 12 550 56 730 104 89 24
115 25 193 7z"/>
<path d="M2472 1394 c-18 -12 -22 -25 -22 -70 0 -63 16 -183 31 -231 14 -43
62 -60 111 -40 85 36 138 112 138 199 0 66 -25 110 -79 138 -50 25 -146 27
-179 4z m136 -100 c30 -21 29 -65 -3 -101 -21 -24 -26 -26 -35 -13 -5 8 -10
26 -10 40 0 14 -4 40 -9 58 -9 29 -8 32 12 32 13 0 33 -7 45 -16z"/>
<path d="M2282 4464 c-24 -17 -29 -43 -9 -63 12 -13 1 -12 -93 5 -42 7 -177
-14 -230 -37 -76 -33 -145 -113 -171 -201 -80 -264 150 -541 397 -479 96 24
176 72 259 156 88 88 126 150 150 243 18 69 10 144 -21 204 -48 93 -163 188
-229 188 -17 0 -41 -7 -53 -16z m102 -94 c40 -24 92 -88 113 -137 53 -128 -69
-334 -253 -425 -68 -33 -95 -41 -141 -42 -68 0 -101 15 -162 74 -112 109 -125
285 -29 394 45 52 99 76 189 83 91 8 153 -3 189 -33 26 -23 30 -32 30 -78 0
-137 -92 -246 -207 -246 -50 0 -98 36 -108 79 -18 82 68 191 150 191 23 0 25
-3 19 -22 -12 -38 -34 -66 -70 -87 -36 -21 -42 -39 -22 -59 52 -52 169 58 172
161 2 82 -87 111 -189 63 -139 -64 -188 -240 -98 -347 37 -44 80 -62 148 -63
140 -2 253 104 286 266 21 106 -7 182 -86 229 l-30 19 34 0 c18 0 48 -9 65
-20z"/>
<path d="M2425 2646 c-15 -22 -15 -33 -1 -113 11 -66 20 -92 37 -105 29 -25
39 -23 83 15 111 93 124 117 91 164 -16 23 -87 48 -110 39 -8 -3 -19 2 -25 10
-19 22 -58 17 -75 -10z"/>
</g>
</svg>
