<?xml version="1.0" standalone="no"?>
<!DOCTYPE svg PUBLIC "-//W3C//DTD SVG 20010904//EN"
 "http://www.w3.org/TR/2001/REC-SVG-20010904/DTD/svg10.dtd">
<svg version="1.0" xmlns="http://www.w3.org/2000/svg"
 width="500.000000pt" height="500.000000pt" viewBox="0 0 500.000000 500.000000"
 preserveAspectRatio="xMidYMid meet">

<g transform="translate(0.000000,500.000000) scale(0.100000,-0.100000)"
fill="#000000" stroke="none">
<path d="M2425 4769 c-134 -9 -404 -60 -540 -101 -117 -36 -251 -100 -260
-125 -3 -10 -38 -34 -78 -53 -145 -71 -284 -189 -412 -350 -157 -196 -252
-367 -293 -525 -76 -287 -67 -480 34 -740 73 -189 86 -220 95 -232 6 -6 35
-60 66 -120 71 -138 119 -313 135 -492 11 -118 9 -140 -18 -346 -22 -167 -29
-260 -28 -385 0 -157 1 -170 33 -280 38 -133 65 -189 130 -280 26 -36 60 -87
76 -114 49 -86 94 -117 243 -167 114 -39 222 -52 366 -47 103 4 131 9 177 30
76 35 116 72 148 137 42 84 56 153 56 281 -1 146 -23 247 -71 321 -20 30 -53
90 -76 134 -44 89 -45 113 -7 202 43 100 103 138 256 158 59 8 140 15 180 15
166 0 322 58 418 156 32 33 73 81 91 109 l34 49 117 2 c185 3 337 47 517 151
165 94 259 192 330 343 85 180 87 307 7 393 l-38 41 43 53 c79 96 114 194 114
313 0 80 -28 139 -106 234 -15 17 -14 22 5 57 62 109 79 245 41 319 -19 38
-81 90 -107 90 -17 0 -17 4 9 53 45 88 32 253 -28 355 -35 60 -155 184 -212
221 -111 71 -325 125 -563 141 -165 11 -721 11 -884 -1z m803 -80 c385 -20
563 -77 700 -223 78 -84 107 -135 122 -215 43 -229 -161 -374 -626 -447 -153
-23 -507 -23 -618 1 -128 27 -287 83 -343 120 -131 87 -126 239 12 384 183
192 652 251 1001 127 53 -19 104 -42 113 -51 32 -28 71 -12 71 30 0 31 -24 49
-113 85 -181 72 -363 97 -575 80 -348 -29 -556 -140 -654 -348 -59 -124 -42
-248 46 -337 l42 -42 -52 -56 c-97 -104 -141 -235 -114 -337 8 -32 26 -58 61
-91 l48 -46 -25 -24 c-34 -32 -102 -172 -113 -233 -12 -68 -3 -118 33 -178 28
-47 114 -129 147 -140 10 -3 3 -17 -23 -46 -47 -52 -74 -105 -94 -183 -25 -99
-2 -169 83 -253 96 -96 352 -192 608 -230 60 -9 111 -18 113 -21 6 -6 -35 -60
-88 -113 -78 -81 -229 -131 -400 -132 -103 0 -247 -23 -302 -48 -107 -47 -185
-162 -196 -289 -4 -57 -1 -69 33 -140 21 -43 55 -104 77 -135 56 -83 73 -157
72 -313 l0 -130 -37 -71 c-21 -39 -46 -79 -55 -87 -87 -79 -347 -87 -546 -18
-146 51 -147 52 -260 222 -85 127 -98 154 -137 284 -33 109 -34 112 -32 290 1
164 9 237 42 425 13 75 13 261 0 357 -25 183 -97 392 -193 553 -32 54 -104
230 -142 348 -28 89 -44 253 -34 348 13 116 55 283 90 361 43 94 133 235 225
353 138 175 248 269 426 360 60 31 103 59 106 70 15 58 456 162 758 179 211
12 523 12 743 0z m850 -769 c73 -35 89 -98 52 -206 -43 -124 -153 -237 -304
-309 -81 -38 -229 -78 -361 -96 -113 -16 -439 -16 -650 -2 -140 10 -176 16
-289 51 -141 44 -172 61 -199 113 -36 68 3 188 91 279 60 62 54 62 242 6 156
-46 300 -60 540 -53 332 11 657 95 794 206 21 17 40 31 40 31 1 0 21 -9 44
-20z m64 -500 c44 -67 53 -108 39 -186 -15 -79 -50 -147 -111 -216 -133 -149
-318 -221 -715 -279 -131 -19 -179 -21 -390 -16 -217 4 -249 7 -339 31 -123
32 -211 72 -265 122 -55 49 -73 86 -73 146 1 81 89 248 131 248 9 0 22 5 27
10 7 7 38 2 95 -16 96 -30 214 -41 535 -50 256 -8 419 5 588 48 172 43 279 96
396 196 19 17 37 27 40 24 3 -4 22 -32 42 -62z m-53 -584 c60 -64 36 -212 -60
-372 -95 -157 -340 -311 -571 -358 -221 -46 -662 20 -907 135 -105 49 -163 96
-191 154 -19 40 -21 50 -11 96 14 65 56 143 94 175 35 30 69 30 172 4 109 -28
339 -44 519 -36 316 15 682 96 826 185 76 47 98 50 129 17z"/>
<path d="M2582 4313 c-58 -28 -110 -117 -112 -186 0 -50 29 -97 80 -125 26
-14 51 -35 56 -47 5 -11 20 -21 36 -23 42 -5 51 25 54 172 2 70 6 137 9 147 4
13 -3 29 -24 49 -33 34 -52 36 -99 13z m38 -156 c-4 -48 -9 -89 -12 -92 -11
-12 -58 38 -58 61 0 32 35 100 57 113 10 5 18 9 19 8 1 -1 -2 -41 -6 -90z"/>
<path d="M1754 1236 c-117 -27 -206 -91 -260 -188 -26 -47 -29 -63 -29 -138 0
-74 4 -93 29 -145 35 -71 105 -149 159 -176 49 -26 127 -35 156 -20 16 9 21
20 19 39 -3 26 -6 27 -60 28 -44 0 -66 6 -97 27 -79 52 -141 166 -141 257 0
89 95 201 197 233 148 48 253 24 300 -67 14 -27 14 -28 -3 -21 -64 28 -183 12
-258 -36 -149 -94 -94 -367 78 -386 57 -7 139 30 187 84 52 60 93 158 97 235
4 56 0 76 -22 125 -29 63 -75 116 -120 140 -40 21 -159 25 -232 9z m240 -242
c14 -13 14 -19 1 -43 -15 -30 -70 -81 -86 -81 -6 0 -9 10 -7 22 2 17 10 22 33
23 36 0 45 27 19 56 -59 65 -153 -45 -110 -129 29 -56 75 -54 151 4 l47 35
-28 -50 c-29 -54 -75 -95 -124 -113 -44 -15 -85 5 -115 57 -56 95 -16 192 93
225 46 14 109 11 126 -6z"/>
<path d="M2478 3715 c-57 -31 -86 -125 -57 -188 16 -34 60 -57 112 -57 25 0
49 -4 52 -10 10 -16 54 -11 64 8 5 10 5 55 0 117 -15 155 -9 145 -82 145 -34
-1 -74 -7 -89 -15z m90 -117 l3 -48 -35 0 c-42 0 -59 22 -44 59 11 31 27 42
53 39 16 -3 21 -12 23 -50z"/>
<path d="M2510 3221 c-60 -9 -95 -34 -120 -85 -24 -50 -25 -75 -6 -119 16 -39
50 -71 96 -92 19 -8 44 -22 55 -29 17 -13 25 -13 52 -1 46 19 59 49 33 75 -18
18 -20 33 -20 128 0 105 -8 134 -34 131 -6 -1 -31 -5 -56 -8z m10 -151 c0 -77
-7 -84 -45 -45 -30 30 -31 54 -4 89 36 46 49 35 49 -44z"/>
<path d="M2534 2632 c-48 -23 -81 -62 -89 -106 -9 -44 20 -111 59 -138 17 -12
43 -32 58 -46 24 -22 32 -24 60 -16 37 11 46 35 28 69 -12 23 -9 157 4 200 15
48 -52 68 -120 37z m36 -128 c0 -61 -13 -68 -39 -22 -13 23 -13 29 2 52 27 40
37 31 37 -30z"/>
</g>
</svg>
