<?xml version="1.0" standalone="no"?>
<!DOCTYPE svg PUBLIC "-//W3C//DTD SVG 20010904//EN"
 "http://www.w3.org/TR/2001/REC-SVG-20010904/DTD/svg10.dtd">
<svg version="1.0" xmlns="http://www.w3.org/2000/svg"
 width="500.000000pt" height="500.000000pt" viewBox="0 0 500.000000 500.000000"
 preserveAspectRatio="xMidYMid meet">

<g transform="translate(0.000000,500.000000) scale(0.100000,-0.100000)"
fill="#000000" stroke="none">
<path d="M2750 4668 c-64 -25 -165 -119 -199 -187 -25 -48 -61 -180 -61 -223
0 -15 -3 -28 -6 -28 -3 0 -28 20 -55 44 -99 89 -222 100 -363 32 -146 -70
-247 -192 -282 -342 -22 -92 -15 -228 16 -304 44 -110 151 -252 353 -468 98
-105 228 -275 275 -360 l26 -47 -62 56 c-126 114 -244 155 -410 145 -243 -14
-384 -117 -446 -325 -49 -166 8 -320 144 -389 25 -12 122 -54 215 -92 245
-101 260 -115 260 -243 0 -71 -4 -89 -29 -133 -42 -77 -82 -121 -140 -154
-128 -74 -182 -17 -236 246 -39 194 -77 289 -146 363 -62 67 -124 101 -185
101 -59 0 -220 -57 -291 -102 -58 -38 -125 -113 -158 -178 -37 -72 -90 -242
-100 -321 -26 -209 48 -412 240 -656 167 -213 379 -395 593 -508 95 -50 365
-159 447 -179 134 -34 295 -50 505 -50 199 0 215 1 310 27 244 68 367 137 525
295 208 209 355 441 445 702 56 162 141 465 159 565 40 225 52 599 37 1095
-14 438 -23 552 -56 677 -49 187 -160 371 -261 433 -98 62 -272 39 -384 -50
l-39 -31 -11 43 c-20 78 -62 192 -93 253 -46 89 -204 245 -288 284 -80 38
-165 41 -249 9z m219 -119 c67 -34 164 -132 214 -217 40 -68 94 -245 106 -343
17 -148 24 -476 12 -622 -16 -198 -57 -519 -88 -691 -30 -166 -27 -181 28
-181 29 0 37 5 51 35 20 42 58 265 95 565 24 197 27 254 28 539 l0 318 58 54
c61 57 126 84 201 84 70 0 132 -51 220 -181 26 -38 80 -214 96 -314 27 -160
47 -974 31 -1240 -21 -340 -33 -408 -126 -717 -71 -238 -121 -365 -195 -498
-59 -106 -180 -272 -208 -286 -11 -5 -43 -38 -71 -73 -105 -132 -252 -215
-504 -284 -73 -20 -104 -22 -277 -21 -263 2 -412 26 -599 96 -245 91 -365 156
-551 298 -189 144 -412 431 -479 615 -23 62 -26 85 -25 200 0 125 2 134 38
235 61 170 110 231 231 286 44 20 75 27 120 27 33 0 65 4 72 9 8 7 27 -5 62
-37 68 -63 102 -149 134 -332 46 -261 119 -363 259 -363 165 0 352 198 365
387 10 132 -30 232 -114 287 -49 33 -276 130 -364 157 -113 34 -167 113 -156
230 9 102 68 203 154 262 30 20 59 29 133 38 121 14 199 6 275 -30 74 -34 184
-134 236 -213 86 -133 171 -410 185 -603 7 -96 21 -125 59 -125 47 0 69 70 67
210 -2 194 -102 561 -205 755 -59 109 -197 293 -313 416 -149 158 -249 283
-296 373 -41 79 -43 84 -43 176 0 159 44 246 176 347 61 47 84 58 127 64 87
12 139 -9 218 -89 71 -72 94 -112 94 -164 0 -34 33 -217 45 -253 4 -11 31 -76
61 -145 31 -75 84 -234 129 -390 121 -425 137 -530 115 -755 -13 -137 -9 -155
36 -155 34 0 53 36 64 121 23 182 4 419 -51 619 -95 344 -138 482 -189 600
-65 150 -84 229 -101 411 -19 212 0 330 71 433 34 51 61 72 118 92 59 21 103
17 171 -17z"/>
<path d="M2783 4481 c-34 -36 -82 -106 -92 -134 -15 -40 -14 -93 4 -127 47
-90 216 -77 314 24 76 79 49 182 -63 237 -54 26 -140 26 -163 0z m163 -102
c31 -29 30 -49 -3 -81 -39 -36 -86 -58 -126 -58 -74 0 -78 68 -8 143 23 25 31
28 69 24 26 -3 53 -14 68 -28z"/>
<path d="M2123 4146 c-72 -35 -110 -73 -99 -101 3 -8 -6 -38 -19 -67 -32 -69
-32 -118 -1 -155 90 -104 356 101 356 274 0 89 -107 111 -237 49z m152 -56
c11 -17 -32 -97 -74 -138 -43 -42 -118 -85 -133 -76 -14 9 -9 33 16 83 33 63
73 111 96 111 10 0 23 7 30 15 14 17 56 20 65 5z"/>
<path d="M3598 3988 c-29 -24 -66 -83 -83 -132 -32 -99 8 -176 92 -176 82 0
175 71 189 145 10 54 -29 124 -86 153 -50 25 -89 28 -112 10z m104 -114 c16
-34 2 -70 -36 -93 -40 -25 -74 -27 -83 -5 -8 22 13 85 36 111 25 26 68 20 83
-13z"/>
<path d="M1885 2807 c-81 -31 -102 -54 -128 -135 -33 -100 -37 -127 -25 -169
11 -41 58 -73 106 -73 110 0 231 157 219 284 -8 89 -81 128 -172 93z m89 -93
c13 -34 -17 -107 -64 -156 -47 -49 -78 -59 -99 -34 -22 26 23 166 53 166 7 0
20 7 27 16 28 33 72 37 83 8z"/>
<path d="M1294 2115 c-4 -8 -12 -15 -19 -15 -23 0 -122 -117 -154 -181 -49
-99 -36 -163 39 -193 101 -40 196 -1 284 118 72 96 84 163 39 217 -49 57 -174
93 -189 54z m104 -91 c32 -21 28 -57 -15 -121 -61 -93 -137 -133 -194 -103
-10 6 -19 17 -19 26 0 30 53 119 103 171 54 58 71 61 125 27z"/>
</g>
</svg>
